PathFileType	4	(X/Y/Z)	G:\TennisProject\Miami_Dimitrov_Sinner_masked_Sports2D\Miami_Dimitrov_Sinner_masked_Sports2D_px_person03.trc
DataRate	CameraRate	NumFrames	NumMarkers	Units	OrigDataRate	OrigDataStartFrame	OrigNumFrames
25	25	4	22	m	25	436	499
Frame#	Time	Hip			RHip			RKnee			RAnkle			RBigToe			RSmallToe			RHeel			LHip			LKnee			LAnkle			LBigToe			LSmallToe			LHeel			Neck			Head			Nose			RShoulder			RElbow			RWrist			LShoulder			LElbow			LWrist		
		X1	Y1	Z1	X2	Y2	Z2	X3	Y3	Z3	X4	Y4	Z4	X5	Y5	Z5	X6	Y6	Z6	X7	Y7	Z7	X8	Y8	Z8	X9	Y9	Z9	X10	Y10	Z10	X11	Y11	Z11	X12	Y12	Z12	X13	Y13	Z13	X14	Y14	Z14	X15	Y15	Z15	X16	Y16	Z16	X17	Y17	Z17	X18	Y18	Z18	X19	Y19	Z19	X20	Y20	Z20	X21	Y21	Z21	X22	Y22	Z22
436	17.44	568.7832435035446	169.6371222357897	0.0	562.837057769026	170.535637655472	0.0	561.9495635162086	191.576243856253	0.0	562.017671860849	213.65121203994192	0.0	559.8741995847649	218.83734625810342	0.0	557.4345746834467	218.19787976943798	0.0	562.9247196858098	216.7484803624594	0.0	574.4420757202115	170.63621135180574	0.0	577.6047892318309	191.56318042611727	0.0	580.1982706733274	213.42264336368265	0.0	580.9264584883528	218.15115637608645	0.0	583.1567081189667	217.67032405611042	0.0	580.1708940606039	216.6486917387487	0.0	568.0375050829489	138.8097604358533	0.0	567.2432205261487	124.90999338414852	0.0	567.3607588772282	133.25629121253286	0.0	557.7649568602335	144.18369192963888	0.0	557.0733508500641	156.41377228632618	0.0	565.1240639679186	162.05860060734688	0.0	578.7405202739053	143.63534653059418	0.0	580.9272551354791	155.96428126095205	0.0	573.8722282099357	162.40685988591508	0.0
437	17.48	568.6933731616471	169.67210499573525	0.0	562.7495714448626	170.4603950113164	0.0	561.9471391557774	191.5817572039378	0.0	562.0794130920597	213.7141441262066	0.0	560.1576760743962	219.10750595178374	0.0	557.530864781225	218.41057963739686	0.0	562.7987447257744	216.7327390602911	0.0	574.3738000167814	170.61834019011062	0.0	577.6444470818979	191.57800858427953	0.0	580.2044299303592	213.5029519097508	0.0	580.9421678908741	218.41443513884747	0.0	583.1549043452701	218.02307253393803	0.0	580.2087719438849	216.77209710022828	0.0	568.0433497882906	138.95069311053462	0.0	567.1431443589449	124.97756680588923	0.0	567.2729692103901	133.4063808506852	0.0	557.6933686016065	144.10182553155897	0.0	556.9334458510176	156.45011395079285	0.0	565.1891949060708	161.83963900777323	0.0	578.7238778181141	143.58938592879784	0.0	580.8661248490768	156.00317653557178	0.0	573.9659227382027	162.31726855194017	0.0
438	17.52	568.6058284495831	169.78205378646567	0.0	562.660564641872	170.42800019330102	0.0	561.9381068544894	191.68800618986901	0.0	562.096484452694	213.86511991160307	0.0	560.344270379834	219.52416412518204	0.0	557.4411345474119	218.8104264345273	0.0	562.7655647760096	216.88468143200592	0.0	574.3480033925898	170.65470852992115	0.0	577.6600887740096	191.68991711022105	0.0	580.1673144666854	213.73192738651198	0.0	581.0547913273481	218.78085227639855	0.0	583.2437568421988	218.48239820820913	0.0	580.0809514013727	217.12433850746623	0.0	568.0210940422968	139.08246039074328	0.0	567.0404752551998	125.02012347372472	0.0	567.1710795312542	133.49624073912747	0.0	557.7014826751413	144.04841774013	0.0	556.857593301118	156.51367533346087	0.0	565.1798080923874	161.83280337726313	0.0	578.7856944939401	143.67182888896272	0.0	580.7554384407138	156.22142593425963	0.0	573.923169588296	162.3247670426093	0.0
439	17.56	568.5548924959551	169.87701134144143	0.0	562.6300397980388	170.6028675972566	0.0	561.8831827025559	191.8603841194267	0.0	562.0839681356873	213.9089226146394	0.0	560.9195711086571	219.40681544724728	0.0	557.4924247415913	218.78042115683627	0.0	563.0008795556935	217.03907124711785	0.0	574.2919189437453	170.81649694494737	0.0	577.5792338417601	191.8612437988446	0.0	579.9754808990691	213.78807407132567	0.0	581.0286950703062	218.53101521026653	0.0	583.2567825542073	218.15248334629433	0.0	579.9104862334905	217.01023046738055	0.0	567.9007590248394	139.0466275277286	0.0	566.9876843931692	125.10604762891742	0.0	567.1166304074133	133.38143179620158	0.0	557.7211924924451	144.21130662132686	0.0	556.9384110897635	156.5168007142949	0.0	565.0844431400702	162.06904563069972	0.0	578.6801332911092	143.73823796913518	0.0	580.6438474484878	156.3006353785832	0.0	573.5047330861935	162.41932813372415	0.0
